Coordinates
version=1
nRows=5
nColumns=42
inDegrees=yes

Units are S.I. units (second, meters, Newtons, ...)
If the header above contains a line with 'inDegrees', this indicates whether rotational values are in degrees (yes) or radians (no).

endheader
time	pelvis_tilt	pelvis_list	pelvis_rotation	pelvis_tx	pelvis_ty	pelvis_tz	hip_flexion_r	hip_adduction_r	hip_rotation_r	knee_angle_r	knee_angle_r_beta	ankle_angle_r	subtalar_angle_r	mtp_angle_r	hip_flexion_l	hip_adduction_l	hip_rotation_l	knee_angle_l	knee_angle_l_beta	ankle_angle_l	subtalar_angle_l	mtp_angle_l	lumbar_extension	lumbar_bending	lumbar_rotation	sh_tx_r	sh_ty_r	sh_tz_r	sh_plane_elev_r	sh_elev_r	sh_axial_rot_r	elbow_flex_r	pro_sup_r	sh_tx_l	sh_ty_l	sh_tz_l	sh_plane_elev_l	sh_elev_l	sh_axial_rot_l	elbow_flex_l	pro_sup_l
      0.00000000	     -4.91172402	      1.40875605	     -7.14346628	      0.20405682	      0.93486126	     -0.04281484	      7.78812640	    -10.01884749	    -14.94139487	     16.92247822	      0.29535296	     -9.15837338	    -31.51812375	     -4.87799097	      8.78961462	     -2.19880139	    -12.13657670	     11.82188998	      0.20633090	      6.94931314	     -7.73613145	     -4.87799097	     -5.49692106	      0.13070712	     -1.68700519	      0.00880473	     -0.01609938	     -0.00533861	      9.64539098	     10.65882853	      0.71929733	     27.06364864	     76.45377847	      0.00578857	     -0.01508959	     -0.00510095	      8.75592125	     10.75707735	     -1.60963675	     33.86662003	     72.76711934
      0.01694910	     -6.08822725	      1.51302667	     -6.57500866	      0.20761296	      0.93386956	     -0.04648521	      9.19598293	     -9.44092954	    -13.95472620	     16.31068404	      0.28467514	     -7.26302501	    -31.70829946	     -5.55024434	      9.86373497	     -2.23620206	    -14.17158491	     10.50698372	      0.18338146	      8.77010250	     -3.37245586	     -5.55024434	     -2.31246824	      0.23600858	     -2.28858808	      0.01384545	     -0.01742873	     -0.00577912	      2.46294505	      8.63597701	      0.62424307	     26.40075323	     77.14805584	      0.01058156	     -0.01611387	     -0.00492242	      1.85557382	      8.83211964	     -3.00292044	     33.94176534	     74.29840465
      0.03389830	     -6.14857886	      1.79078179	     -5.94290762	      0.21054911	      0.93438517	     -0.04802750	      9.33983033	     -9.30680145	    -13.60231793	     15.36860536	      0.26823276	     -5.99200728	    -30.27469272	     -5.73631545	      9.61809040	     -1.89177306	    -14.68106866	      9.53691206	      0.16645052	      8.87123954	     -1.55413475	     -5.73631545	     -2.05212143	     -0.51995987	     -2.82540412	      0.01472656	     -0.01736058	     -0.00559009	      1.41247403	      7.84453263	     -0.49102250	     26.88479888	     75.83440468	      0.00926795	     -0.01575925	     -0.00460459	      1.64460596	      9.36190040	     -3.99849942	     33.86710981	     73.28060542
      0.05084750	     -5.85050521	      1.87560354	     -5.14579479	      0.21309698	      0.93243220	     -0.05040424	      9.21219196	     -9.03823874	    -12.33356356	     14.86991566	      0.25952899	     -4.24743688	    -28.00803282	     -5.87837760	      8.72355338	     -1.45933729	    -14.32137877	      8.24027205	      0.14381988	      8.87157612	     -0.53278664	     -5.87837760	     -2.09933030	     -1.10371135	     -3.31343072	      0.01588757	     -0.01754170	     -0.00545920	      1.23826479	      7.28775617	     -0.80435845	     27.16381733	     74.55828079	      0.00756818	     -0.01573252	     -0.00439146	      2.20407425	     10.16903498	     -4.13848604	     33.18392583	     72.22798577
      0.06779660	     -5.67639890	      1.73401117	     -4.35313171	      0.21652203	      0.93151205	     -0.05092974	      9.27258331	     -8.18658431	    -10.37357209	     14.69753401	      0.25652036	     -2.13811211	    -25.57755911	     -6.33096421	      7.99330357	     -1.39419193	    -13.68829138	      7.17496372	      0.12522674	      8.77898763	      0.13255652	     -6.33096421	     -2.22809712	     -1.37835143	     -3.34550687	      0.01671286	     -0.01769898	     -0.00536713	     -0.86069479	      6.75089315	      0.90444241	     28.25625267	     73.14424662	      0.00782692	     -0.01555463	     -0.00410599	      2.21331765	     10.84251728	     -3.37907413	     33.14523365	     70.10262957
